<?xml version="1.0" standalone="no"?>
<!DOCTYPE svg PUBLIC "-//W3C//DTD SVG 20010904//EN"
 "http://www.w3.org/TR/2001/REC-SVG-20010904/DTD/svg10.dtd">
<svg version="1.0" xmlns="http://www.w3.org/2000/svg"
 width="512.000000pt" height="512.000000pt" viewBox="0 0 512.000000 512.000000"
 preserveAspectRatio="xMidYMid meet">
<metadata>
Created by potrace 1.11, written by Peter Selinger 2001-2013
</metadata>
<g transform="translate(0.000000,512.000000) scale(0.100000,-0.100000)"
fill="#000000" stroke="none">
<path d="M4380 4977 c-187 -291 -394 -530 -560 -646 -100 -71 -253 -146 -435
-215 -457 -174 -521 -206 -679 -337 -270 -223 -474 -550 -542 -866 -21 -102
-22 -285 0 -378 38 -165 127 -317 257 -439 44 -42 84 -76 88 -76 4 0 43 39 87
87 162 180 312 328 427 420 64 52 117 96 117 99 0 3 -9 33 -21 67 -42 125 -36
341 17 560 27 109 94 320 101 314 2 -2 -4 -60 -13 -128 -28 -213 -6 -630 36
-699 14 -23 395 264 513 388 l39 40 -13 76 c-25 161 11 376 91 540 36 73 40
77 35 41 -3 -22 -10 -80 -16 -130 -14 -108 1 -365 20 -365 4 0 44 60 90 133
95 151 252 462 312 617 l40 105 -6 -85 c-15 -233 -121 -540 -268 -780 -25 -41
-45 -76 -44 -77 1 -1 38 3 82 8 112 13 220 43 325 88 104 45 101 35 -15 -52
-141 -105 -343 -187 -463 -187 -42 0 -48 -4 -100 -60 -64 -72 -227 -213 -386
-336 -64 -49 -112 -92 -108 -96 4 -4 52 -14 107 -23 179 -29 510 -17 655 25
18 5 36 8 38 6 8 -9 -311 -106 -420 -128 -145 -30 -396 -32 -467 -5 l-44 17
-56 -46 c-91 -74 -301 -266 -335 -306 -17 -20 -76 -84 -131 -143 l-99 -107 24
-20 c14 -10 69 -48 122 -84 378 -253 778 -294 1133 -116 345 172 660 559 820
1006 252 703 208 1528 -114 2176 -60 120 -138 250 -149 250 -4 -1 -45 -60 -92
-133z"/>
<path d="M303 2613 c-40 -2 -73 -7 -73 -10 0 -3 27 -52 59 -107 127 -217 248
-473 320 -680 102 -290 307 -515 549 -603 216 -79 407 -2 511 204 11 23 21 46
21 52 0 20 -141 183 -264 306 -124 123 -260 235 -388 320 -32 21 -58 40 -58
42 0 7 104 -49 192 -104 178 -110 336 -241 466 -386 40 -45 77 -83 81 -85 15
-5 43 136 48 243 21 412 -276 681 -852 774 -125 20 -417 43 -500 39 -22 -1
-73 -4 -112 -5z"/>
<path d="M2430 1919 c-155 -188 -262 -377 -319 -564 -33 -108 -61 -247 -61
-301 0 -50 -15 -49 -35 4 -43 114 -139 282 -236 416 l-58 78 -12 -42 c-10 -32
-10 -46 -1 -58 89 -130 166 -303 240 -539 49 -155 50 -161 56 -318 7 -201 50
-565 68 -576 7 -5 33 -11 57 -15 56 -9 100 12 125 58 19 34 19 36 -2 114 -34
128 -45 237 -45 444 0 212 11 330 49 513 59 283 179 542 323 701 28 31 51 60
51 65 0 7 -114 111 -122 111 -2 0 -37 -41 -78 -91z"/>
</g>
</svg>
